<?xml version="1.0" standalone="no"?><!DOCTYPE svg PUBLIC "-//W3C//DTD SVG 1.1//EN" "http://www.w3.org/Graphics/SVG/1.1/DTD/svg11.dtd"><svg t="1783323483801" class="icon" viewBox="-64 -280 1152 1440" version="1.1" xmlns="http://www.w3.org/2000/svg" p-id="20389" width="256" height="256" xmlns:xlink="http://www.w3.org/1999/xlink"><path d="M686.572159 659.250781l-4.208409-1.402803-1.402803-1.402802v-4.208409c-0.936908-0.931789-2.339711-1.402803-4.208408-1.402803 0-4.674303-0.936908-10.751409-2.805606-18.231317-3.737394-0.936908-10.751409-9.589233-21.042043-25.951853-10.285514-16.36262-16.36262-27.349536-18.231317-32.960747v-19.63924l4.208408 1.402803c21.502817 28.056057 37.399543 51.432691 47.690178 70.135023v33.662148z m-85.565854-56.106994c-3.737394 0-5.611211-2.334592-5.611212-7.014014v-1.402803c0.936908 0 4.208409 2.339711 9.81962 7.014014-0.931789 0.936908-2.334592 1.402803-4.208408 1.402803z m56.045557 57.412522l-12.563789-20.939648 12.625226-2.805606-5.611212-12.625225c25.250451 13.09112 37.875677 45.82148 37.875677 98.18596v30.856542l-57.509797-93.977551 42.078966 63.121009c-28.987846-58.9126-43.952783-90.240157-44.884571-93.977552h-1.402803l-1.402803 4.208409-8.416817-21.042043h5.611211l33.600712 48.995705z m35.126388 120.722961c-32.72524-40.205149-64.047677-93.506537-93.977551-159.899046 43.015874 65.4556 74.338311 112.213988 93.977551 140.264926v19.639239z m58.9126-21.036923l-4.208409-1.402803c-1.868697-0.931789-2.805606-3.27662-2.805605-7.014014l1.402803-1.402803v-16.828515l5.611211 26.648135z m21.042043 30.861662c-5.611211 0.931789-8.416817-5.145317-8.416817-18.236437 0-7.479909 1.868697-14.959817 5.611211-22.444845l1.402803 2.805605c0 21.507937 0.465894 34.133163 1.402803 37.875677z m-33.662149 9.8145l-1.402803-19.63412 7.014014 9.81962-5.611211 9.8145z m44.884571 4.208409a20.806536 20.806536 0 0 1-5.611211-9.81962v-5.606092l5.611211-1.402802-0.010239 8.247866v0.061437l0.010239 0.102394-0.010239 0.394218v0.317423l0.010239 7.705176z m-57.509797 44.884571a20.806536 20.806536 0 0 1-5.611211-9.8145l1.402803-5.611211 4.208408-2.805606v18.231317zM253.147037 900.507272c3.737394-10.285514 5.611211-24.779437 5.611211-43.481768v-5.611212l-5.611211 49.0981z m538.619976-176.533011v36.268086l-5.606092 5.611211v-14.028028c0-2.805606 0.931789-7.474789 2.805606-14.028029 1.868697-6.543 2.805606-11.217303 2.805606-14.028028l-0.00512 0.204788z m-525.99987 76.949368l-1.397683-8.416817c-1.868697 0.931789-3.27662 2.334592-4.208409 4.203289-0.936908 0.936908 0.465894 1.873817 4.208409 2.805606l1.402803 4.208408c-1.868697 1.873817-3.27662 3.737394-4.208409 5.611212l-1.402803-1.402803c-0.936908 3.737394-1.402803 7.014014-1.402803 9.81962 0 7.479909 1.868697 14.028028 5.611212 19.639239v-5.611211a9.174535 9.174535 0 0 1-4.208409-4.208408v-2.805606l4.208409-7.014014c0-1.807261 0.767958-8.596007 2.308993-20.350881l0.010239-0.17407-0.921549 3.691316z m-25.189015 1.290169c-9.389564 49.558874-14.079226 102.430206-14.079225 158.608877 0 14.028028 0.460775 27.119148 1.402802 39.27336 0-0.931789 2.099085-27.114029 6.307493-78.54672 4.208409-51.432691 6.312613-79.483628 6.312613-84.157932l-1.402803-7.014014c1.873817-8.416817 3.27662-14.493923 4.208409-18.236437l-2.805606-4.208408c0-1.689507 0.015359-3.343176 0.046078-4.950768l0.010239-0.767958z m0 0l2.652014-13.295908c0.926669-4.443916 1.894296-8.857113 2.902881-13.244712l-1.64855-4.100894-0.409577 1.249211c-1.843099 6.343331-2.969437 14.831824-3.379014 25.470599l-0.117754 3.921704z m-3.99338-102.71691l0.609246-0.271345 1.925014-0.701402 1.402803 2.805606c-1.868697 6.54812-2.805606 10.290634-2.805605 11.222423l2.805605 5.611211c0-33.662149 3.737394-53.301388 11.222423-58.9126 0 1.868697-2.805606 38.341571-8.416817 109.408383l1.157056 2.91312 0.419817-1.331127c1.464239-4.095775 3.291979-7.09081 5.478099-8.990226l1.361845-1.008584v-5.611212l-4.208408 1.402803v-1.402803c5.611211-25.245332 9.353726-44.418677 11.222422-57.509797h1.402803c2.805606-8.411697 7.014014-20.571029 12.625226-36.467754v16.833634l4.208408 7.014014c-2.805606 16.828514-5.145317 29.919634-7.014014 39.268241l2.805606 22.444845-2.805606 4.208409-2.805606 1.402803c-1.873817 7.485028-2.805606 19.173345-2.805605 35.070071 0 0.931789 0.931789 3.737394 2.805605 8.411697l-0.16895-0.414697 0.076795-0.537571c2.36531-17.831979 6.276775-45.647409 11.734395-83.44629l0.982986-6.773387c-0.936908 14.028028-5.611211 60.781297-14.028028 140.270045-6.54812 57.975691-9.81962 104.72896-9.81962 140.264925 0 14.028028 0.936908 27.119148 2.805605 39.27336l-1.402803-15.430831 2.805606-5.611212c3.737394-72.00372 10.751409-132.314003 21.042043-180.941088l37.870557-176.73268C355.541405 451.651319 377.986251 349.727965 386.397948 339.437331c60.786417 123.436411 151.021454 265.575153 270.715351 426.411107-16.833634-35.530846-33.662149-63.586903-50.495783-84.157931 16.833634 14.959817 28.056057 28.056057 33.662149 39.26824 24.318662 31.798571 38.346691 51.437811 42.084085 58.91772 9.348606 15.896726 16.598127 38.807466 21.738324 68.7271 5.145317 29.924754 8.652324 51.898586 10.521022 65.926614 0-18.702331 2.339711-30.856543 7.014014-36.467754 2.805606 13.09112 4.208409 33.196254 4.208408 60.310283l-0.010239-0.01536 1.413042-2.785126v1.402802c0.931789 1.868697 1.868697 2.805606 2.805606 2.805606l2.805606-1.402803c-4.679423-53.301388-7.014014-100.059777-7.014015-140.270045v-8.411697l5.611212-2.805606 5.611211 5.611211-4.208408 5.606092 4.208408 50.495783c0.931789-3.737394 1.402803-7.474789 1.402803-11.217303 0-3.742514-0.471014-8.887831-1.402803-15.430832v-16.833634l1.402803-1.402803 2.805606 1.402803 4.126493 2.769768-1.326007-32.223508c0-1.402803 0.266225-3.071831 0.793556-4.996845l0.614366-2.017169 1.397683-1.402803 4.208409 1.402803c0.936908 40.210268 3.27662 72.00372 7.014014 95.380354-2.805606-30.856543-4.208409-45.82148-4.208408-44.884571 0-17.765423 0.936908-28.987846 2.805605-33.662149v-5.611211c0.936908 2.805606 1.873817 5.140197 2.805606 7.014014l-1.402803 1.402803c0 1.868697 0.936908 10.285514 2.805606 25.245331 0.936908 9.353726 3.737394 16.833634 8.416817 22.444846v-43.481769l12.625226 102.394369c0.931789-4.679423 1.402803-9.353726 1.402802-14.028029 0-5.611211-0.936908-14.028028-2.805605-25.250451-1.873817-11.217303-2.805606-20.105134-2.805606-26.648134 0-6.54812 1.868697-13.562134 5.611211-21.042043l1.402803 29.45886c2.099085-11.222423 3.414852-18.497543 3.942183-21.83048l0.112634-0.762838-2.652014-2.657133c-1.63831-1.63831-2.559859-5.780162-2.764648-12.425557l-0.051197-2.293634v-0.317422l0.010239-0.394219-0.010239-0.102394v-0.061437l0.051197-1.392563c0.102394-2.283394 0.409577-5.401303 0.931789-9.348606l0.430056-3.123028c0.931789-6.543 1.402803-11.217303 1.402803-14.022909l4.208409 1.402803c4.674303 9.348606 7.014014 17.765423 7.014014 25.245331 0 1.873817-0.706521 5.145317-2.109324 9.81962-1.402803 4.679423-2.099085 7.950923-2.099085 9.81962v11.222423c2.800486 5.611211 3.972901 15.195324 3.501888 28.752339-0.460775 13.562134 1.172416 23.141127 4.914929 28.757458v-91.171946l1.397684 1.397684c0 15.901845 2.805606 47.224283 8.416817 93.98267l4.208408 1.402803 5.611212-28.056057-2.805606-11.222422c2.805606-9.348606 4.208409-33.662149 4.208408-72.935509l-1.402802-2.805606c0.936908-3.737394 1.402803-6.54812 1.402802-8.416817v-42.084085l4.208409-1.397683h-4.208409l-1.402802-1.402803 0.701401-3.507007c0.465894-2.339711 2.099085-11.45281 4.90981-27.349536l-4.208409-19.63924c1.868697-4.674303 3.27662-9.353726 4.208409-14.028028l-4.208409-16.828515c7.479909-121.567714 11.222423-212.739659 11.222423-273.520956 11.217303-136.527531 19.63412-223.025174 25.245332-259.492928-0.931789-2.805606-3.737394-17.765423-8.416817-44.884571-3.737394-18.702331-10.751409-31.793451-21.042043-39.27336l-7.014014 9.8145-1.397683-2.805606-5.611212 5.611212-11.222423-14.028029-2.805605 11.222423-9.8145-4.208409V21.042043l-2.805606-2.800486-8.416817-1.402803-1.402803-1.402803-7.014014 2.805606-2.805606-8.416817-5.611211 7.014014-5.611212-8.416817c-38.336451 8.416817-62.1841 57.975691-71.532705 148.676623-3.742514 29.929874-5.611211 92.113974-5.611212 186.562539v230.028948c-16.833634-23.371515-58.9126-103.792051-126.242017-241.251371-59.849508-121.567714-102.394368-192.168631-127.639699-211.802751V109.408383c-0.936908-16.833634 2.334592-32.73036 9.8145-47.690178-4.674303-20.571029-7.945803-38.341571-9.8145-53.301388C423.341836 4.679423 419.589083 2.805606 415.851688 2.805606l1.249211 0.112633c-0.921549 0.337901-8.119873 1.126338-21.594972 2.37043l-3.501887 0.322542L382.194659 0l-2.805605 2.805606c-1.873817 1.868697-3.742514 2.805606-5.611212 2.805605l-1.402803 4.208409-9.81962-4.208409h-12.625225L344.318982 0h-1.402802l-5.611212 2.805606-1.402803 2.805605c-31.793451 0-53.767283 12.154212-65.921494 36.467755-12.159331 39.27336-19.63924 70.135023-22.444845 92.574748-6.543 26.18736-11.222423 45.355585-14.028029 57.509797a23490.215238 23490.215238 0 0 1-16.828514 89.769143c-31.793451 163.646679-47.690177 332.899451-47.690177 507.768552L168.978866 855.376954l0.097275-1.945493c0.117754-1.520556 0.348141-3.153747 0.701401-4.90981l0.614366-2.71345 1.402803-1.402803c0.931789-0.936908 1.868697-2.339711 2.805606-4.208409l-0.015359 54.637635 0.296943-3.931944c1.894296-26.064486 5.698247-66.674093 11.416973-121.828819l0.921549-8.831514c9.353726-72.00372 16.36774-113.145777 21.042043-123.436411 0 5.611211-2.805606 34.604177-8.416818 86.968656-11.222423 92.574748-16.833634 177.669588-16.833634 255.28452l0.01024-2.590578 0.025598-2.554739c0.399338-29.832599 4.162331-71.45591 11.294099-124.869932l1.295289-9.548275c8.416817-61.252311 12.625226-107.309298 12.625226-138.165841l1.402802 7.014014-15.430831 206.19154a1414.72155 1414.72155 0 0 1 14.028029-96.783157c-0.936908-2.805606-1.402803-12.154212-1.402803-28.056057l1.402803-1.397683c-0.936908-18.702331 1.402803-51.898586 7.014014-99.588763 6.543-53.301388 13.09112-85.09484 19.63412-95.380354 0 14.959817-2.334592 50.024769-7.014014 105.194854l4.198169-13.99219 0.102394 2.682732c0.112634 1.756063 0.348141 3.394373 0.701402 4.91493l0.614366 2.18612 3.071831 5.181155z" fill="#7ee787" p-id="20390"></path></svg>